<svg width="130" height="50" viewBox="0 0 130 50" fill="none" xmlns="http://www.w3.org/2000/svg">
    <g clip-path="url(#clip0_0_46)">
        <path d="M42.6833 21.9015V26.1819H48.9808V43.2742H53.3856V26.1819H59.683V21.9015H42.6833ZM78.8179 23.1428C77.5374 22.2532 75.6243 21.7817 73.2626 21.7817C72.1977 21.7817 66.9544 21.8961 66.7334 21.9015L65.9014 21.9178V43.2742H70.3344V35.5279H73.1662C74.8497 35.566 76.5169 35.1925 78.0249 34.4401C80.0941 33.1443 81.3302 30.85 81.2814 28.4011C81.2814 26.011 80.4538 24.2415 78.8179 23.1418V23.1428ZM70.3235 26.1808C71.1902 26.1808 72.4978 26.1188 73.0362 26.1188C76.1161 26.1188 76.7455 27.0694 76.7455 28.4926C76.7553 29.3245 76.3772 30.115 75.7261 30.6268C74.8172 31.0678 73.8108 31.2638 72.8033 31.1963H70.3344L70.3235 26.1819V26.1808ZM90.6924 26.6316C88.5127 26.6142 86.424 27.5136 84.9333 29.1132C83.3864 30.7063 82.5381 32.8568 82.5782 35.0836C82.5479 37.3213 83.3961 39.4805 84.9398 41.0943C86.4316 42.6873 88.5149 43.5846 90.6924 43.5704C92.209 43.5889 93.6954 43.1534 94.9629 42.3182V43.0064H99.3395V26.9953L95.03 27.9002C93.743 27.0509 92.2318 26.6088 90.6924 26.6316ZM93.6488 31.9639C94.4374 32.8067 94.8664 33.9272 94.8437 35.0836C94.8686 36.2487 94.4407 37.379 93.6488 38.2305C92.9338 39.0167 91.9219 39.4642 90.8624 39.4642C89.8029 39.4642 88.7922 39.0178 88.0761 38.2316C87.2853 37.3768 86.8574 36.2454 86.8877 35.0782C86.8617 33.9218 87.2885 32.8024 88.0761 31.9585C88.7824 31.1582 89.7954 30.7008 90.8603 30.7008C91.9241 30.7008 92.937 31.1582 93.6434 31.9585L93.6488 31.9639ZM110.354 33.3708L108.655 32.7153C107.127 32.1469 107.127 31.9748 107.127 31.7429C107.127 31.3781 107.127 30.7063 109.074 30.7063C110.473 30.7095 111.851 31.0471 113.095 31.6917L114.307 32.2601V27.6672L113.74 27.457C112.221 26.8799 110.613 26.5805 108.989 26.575C105.07 26.575 102.726 28.4414 102.726 31.5665C102.726 34.6916 104.99 35.8121 106.734 36.4491L108.559 37.1046C110.325 37.7361 110.496 37.9125 110.496 38.2425C110.496 38.7096 110.496 39.4892 108.281 39.4892C106.622 39.4849 104.997 39.0101 103.593 38.1227L102.312 37.3822V42.1015L102.772 42.341C104.476 43.1849 106.353 43.614 108.253 43.5933C112.415 43.5933 114.901 41.6344 114.901 38.3622C114.93 35.3624 112.856 34.304 110.354 33.3708ZM125.094 33.3708L123.395 32.7153C121.866 32.1469 121.866 31.9748 121.866 31.7429C121.866 31.3781 121.866 30.7063 123.814 30.7063C125.213 30.7095 126.591 31.0471 127.834 31.6917L129.047 32.2601V27.6672L128.48 27.457C126.962 26.8799 125.353 26.5805 123.73 26.575C119.81 26.575 117.466 28.4414 117.466 31.5665C117.466 34.6916 119.731 35.8121 121.475 36.4491L123.299 37.1046C125.065 37.7361 125.236 37.9125 125.236 38.2425C125.236 38.7096 125.236 39.4892 123.021 39.4892C121.363 39.4849 119.738 39.0101 118.333 38.1227L117.053 37.3822V42.1015L117.511 42.341C119.215 43.1849 121.094 43.614 122.993 43.5933C127.155 43.5933 129.641 41.6344 129.641 38.3622C129.67 35.3624 127.625 34.304 125.094 33.3708Z"
              fill="white"/>
        <path d="M59.3938 43.3189C60.6664 43.3189 61.698 42.282 61.698 41.0028C61.698 39.7237 60.6664 38.6868 59.3938 38.6868C58.1212 38.6868 57.0895 39.7237 57.0895 41.0028C57.0895 42.282 58.1212 43.3189 59.3938 43.3189Z"
              fill="url(#paint0_linear_0_46)"/>
        <path d="M15.2609 48.5063C19.7697 48.5063 23.9092 45.7666 24.4909 42.3998L25.4269 34.0436C23.6676 34.9344 23.0999 36.9042 19.3895 35.3732C19.3895 35.3732 15.7213 33.362 14.6987 33.0495C9.62325 31.4967 4.81866 35.6606 4.77316 35.7238L6.10675 42.3029C6.69283 45.7046 10.803 48.5063 15.2609 48.5063Z"
              fill="url(#paint1_linear_0_46)"/>
        <path d="M27.6488 20.1418C27.2533 14.6952 23.4595 10.1023 18.2053 8.71068L18.4935 6.02875L20.7826 4.85493L20.8747 4.8081L22.4997 3.98599C22.8388 3.81504 23.0955 3.51668 23.2147 3.15517C23.3328 2.79475 23.3035 2.40166 23.1334 2.06193L22.9341 1.66448C22.9124 1.62093 22.8875 1.57737 22.8615 1.53599C22.4683 0.917503 21.672 0.697548 21.0198 1.02857L20.528 1.27901L20.4933 1.29535L15.8567 3.60924C15.5858 3.73337 15.4017 3.99035 15.3692 4.28761L14.9402 8.28166C8.24192 8.30344 2.78517 13.5301 2.30851 20.1418C0.969507 20.4032 0.00209041 21.5792 0.00100708 22.9512V24.2959C0.00317375 25.8247 1.20134 27.0813 2.72017 27.1477L4.59976 41.7606C4.97676 46.334 8.56801 49.7847 12.9501 49.7847H17.2531C21.6352 49.7847 25.2253 46.3362 25.598 41.8118L27.4841 27.1271C28.8968 26.9409 29.9541 25.7333 29.9563 24.3014V22.9555C29.9573 21.5835 28.9899 20.4021 27.6488 20.1418ZM14.977 10.4289C20.4803 10.4289 25.0011 14.6811 25.5016 20.0874H23.414C22.9254 15.832 19.3418 12.524 14.9803 12.524C10.6198 12.524 7.02859 15.832 6.54109 20.0874H4.45459C4.95292 14.6811 9.47151 10.4289 14.977 10.4289ZM21.3784 20.0874H19.0688C18.6246 18.1764 16.9292 16.8251 14.9781 16.8251C13.0259 16.8251 11.3316 18.1764 10.8874 20.0874H8.57776C9.05767 16.9067 11.7779 14.5558 14.9781 14.5558C18.1783 14.5558 20.8985 16.9067 21.3784 20.0874ZM5.93117 34.9616L4.92909 27.1608H12.8699L12.3575 32.0717C9.33826 31.9737 7.19759 33.5853 5.93334 34.9605L5.93117 34.9616ZM23.4194 41.5766C23.1378 44.999 20.4858 47.5797 17.252 47.5797H12.949C9.71417 47.5797 7.06217 44.999 6.77401 41.5254L6.25184 37.4476C6.72959 36.6505 8.67201 33.8401 12.1668 33.8738L11.5212 40.0522C11.4367 40.8601 12.0022 41.5886 12.7854 41.6757L13.2253 41.7247C13.274 41.7301 13.3228 41.7334 13.3715 41.7334C14.1125 41.7269 14.7278 41.1585 14.7961 40.4169L15.3984 34.648C15.5122 34.6992 15.6238 34.746 15.7386 34.8037C19.7686 36.7855 22.5658 36.1888 24.2222 35.3199L23.4205 41.5766H23.4194ZM24.5331 32.9058C23.9914 33.472 21.4792 35.6335 16.5229 33.1954C16.2066 33.0397 15.8989 32.908 15.5934 32.7871L16.1828 27.1597H25.2719L24.5331 32.9058ZM27.7907 24.2938C27.7907 24.4767 27.7192 24.6531 27.5913 24.7816C27.4635 24.9123 27.2891 24.9852 27.1071 24.9852H2.85017C2.47101 24.9852 2.16551 24.6771 2.16551 24.2981V22.9523C2.16551 22.5722 2.47209 22.2652 2.85017 22.2641H27.1071C27.4863 22.2641 27.7918 22.5722 27.7928 22.9523L27.7907 24.2938Z"
              fill="white"/>
        <path d="M17.4839 43.8916C16.8253 44.0353 16.406 44.6876 16.549 45.3507C16.6909 46.0127 17.3398 46.433 17.9996 46.2904C18.6583 46.1488 19.0775 45.4955 18.9356 44.8335C18.8673 44.5155 18.6756 44.2368 18.4048 44.0604C18.1318 43.8829 17.8003 43.823 17.4839 43.8916ZM18.3625 41.1574C18.135 41.2075 17.9617 41.3882 17.9194 41.618C17.8783 41.8466 17.979 42.0786 18.174 42.2049C18.369 42.3312 18.6203 42.3268 18.8099 42.194C19.0006 42.0612 19.0927 41.826 19.0439 41.5984C18.9768 41.287 18.6713 41.0899 18.3614 41.1574H18.3625ZM10.4412 44.6712C10.2115 44.7213 10.0653 44.95 10.1151 45.183C10.1649 45.4139 10.3924 45.5608 10.6232 45.5097C10.8528 45.4596 10.9991 45.2309 10.9493 45.0001C10.9254 44.889 10.8583 44.791 10.7629 44.73C10.6676 44.668 10.5517 44.6473 10.4412 44.6712ZM15.1764 41.9261C14.8558 41.9947 14.6098 42.2528 14.5513 42.5762C14.4928 42.8996 14.6348 43.2274 14.9099 43.4059C15.1862 43.5834 15.5404 43.5769 15.8091 43.3896C16.0799 43.2012 16.2099 42.8691 16.1395 42.5479C16.0442 42.108 15.613 41.8292 15.1753 41.9251L15.1764 41.9261ZM10.3621 41.9261C9.92442 42.0209 9.64709 42.4543 9.74242 42.8942C9.83776 43.333 10.27 43.6117 10.7066 43.5159C11.1432 43.4201 11.4216 42.9867 11.3252 42.5468C11.2797 42.3366 11.1529 42.1526 10.972 42.035C10.7911 41.9185 10.5712 41.8793 10.3621 41.9261ZM17.9183 39.7865C18.3842 39.6852 18.7417 39.3117 18.8273 38.8402C18.9118 38.3698 18.7059 37.8929 18.3051 37.6348C17.9043 37.3757 17.3886 37.3844 16.9975 37.6577C16.6064 37.931 16.4168 38.4145 16.5187 38.8816C16.6563 39.5197 17.2835 39.9248 17.9183 39.7865ZM12.5829 44.4774C12.2038 44.717 12.09 45.2179 12.3262 45.599C12.5634 45.9801 13.0618 46.0955 13.442 45.8592C13.8212 45.6218 13.9371 45.1209 13.702 44.7387C13.5883 44.5547 13.4063 44.423 13.1961 44.3751C12.987 44.3261 12.766 44.3631 12.5829 44.4774ZM20.7274 40.3211C20.9647 40.7022 21.4641 40.8177 21.8433 40.5792C22.2224 40.3396 22.3373 39.8387 22.1 39.4576C21.8628 39.0765 21.3633 38.96 20.9842 39.1985C20.8011 39.3128 20.6722 39.4957 20.6234 39.7059C20.5758 39.916 20.6126 40.1382 20.7274 40.3211ZM20.6202 42.6404C20.241 42.8789 20.1251 43.3809 20.3623 43.762C20.6007 44.1431 21.099 44.2596 21.4782 44.0212C21.8573 43.7827 21.9733 43.2807 21.736 42.8996C21.6223 42.7167 21.4413 42.586 21.2312 42.537C21.0221 42.4891 20.8022 42.5261 20.6202 42.6404ZM9.90601 39.2725C9.56692 38.7281 8.85409 38.5647 8.31351 38.9045C7.77184 39.2453 7.60826 39.9607 7.94626 40.5051C8.28534 41.0496 8.99709 41.214 9.53876 40.8754C9.79876 40.7109 9.98401 40.4507 10.0533 40.1502C10.1216 39.8496 10.0685 39.5339 9.90601 39.2725Z"
              fill="white"/>
    </g>
    <defs>
        <linearGradient id="paint0_linear_0_46" x1="57.0952" y1="41.0028" x2="61.698" y2="41.0028"
                        gradientUnits="userSpaceOnUse">
            <stop stop-color="#59C4C9"/>
            <stop offset="0.37" stop-color="#41B1BE"/>
            <stop offset="1" stop-color="#0F8BA8"/>
        </linearGradient>
        <linearGradient id="paint1_linear_0_46" x1="4.77316" y1="40.6054" x2="25.4263" y2="40.6054"
                        gradientUnits="userSpaceOnUse">
            <stop stop-color="#59C4C9"/>
            <stop offset="0.37" stop-color="#41B1BE"/>
            <stop offset="1" stop-color="#0F8BA8"/>
        </linearGradient>
        <clipPath id="clip0_0_46">
            <rect width="130" height="49" fill="white" transform="translate(0 0.875)"/>
        </clipPath>
    </defs>
</svg>
